<mxfile host="app.diagrams.net" modified="2023-04-19T09:49:50.571Z" agent="Mozilla/5.0 (Macintosh; Intel Mac OS X 10_15_7) AppleWebKit/537.36 (KHTML, like Gecko) Chrome/112.0.0.0 Safari/537.36" etag="zIbiD9DVpBhcq3dzi8Tp" version="21.1.9" type="github">
  <diagram name="第 1 页" id="ofRzNeDL8fCf8qeWpYLR">
    <mxGraphModel dx="1434" dy="2039" grid="1" gridSize="10" guides="1" tooltips="1" connect="1" arrows="1" fold="1" page="1" pageScale="1" pageWidth="827" pageHeight="1169" math="0" shadow="0">
      <root>
        <mxCell id="0" />
        <mxCell id="1" parent="0" />
        <mxCell id="5y8bReTyfVtWufvomRR2-9" value="数据（最终）一致性" style="rounded=1;whiteSpace=wrap;html=1;" parent="1" vertex="1">
          <mxGeometry x="820" y="370" width="120" height="60" as="geometry" />
        </mxCell>
        <mxCell id="5y8bReTyfVtWufvomRR2-10" value="MQ" style="swimlane;whiteSpace=wrap;html=1;" parent="1" vertex="1">
          <mxGeometry x="390" y="170" width="310" height="480" as="geometry" />
        </mxCell>
        <mxCell id="5y8bReTyfVtWufvomRR2-5" value="流量削峰" style="rounded=0;whiteSpace=wrap;html=1;" parent="5y8bReTyfVtWufvomRR2-10" vertex="1">
          <mxGeometry x="95" y="310" width="120" height="60" as="geometry" />
        </mxCell>
        <mxCell id="5y8bReTyfVtWufvomRR2-4" value="服务解耦" style="rounded=0;whiteSpace=wrap;html=1;" parent="5y8bReTyfVtWufvomRR2-10" vertex="1">
          <mxGeometry x="95" y="200" width="120" height="60" as="geometry" />
        </mxCell>
        <mxCell id="5y8bReTyfVtWufvomRR2-6" value="异步消息" style="rounded=0;whiteSpace=wrap;html=1;" parent="5y8bReTyfVtWufvomRR2-10" vertex="1">
          <mxGeometry x="95" y="100" width="120" height="60" as="geometry" />
        </mxCell>
        <mxCell id="5y8bReTyfVtWufvomRR2-16" style="edgeStyle=orthogonalEdgeStyle;rounded=0;orthogonalLoop=1;jettySize=auto;html=1;exitX=0.5;exitY=1;exitDx=0;exitDy=0;" parent="1" source="5y8bReTyfVtWufvomRR2-11" target="5y8bReTyfVtWufvomRR2-9" edge="1">
          <mxGeometry relative="1" as="geometry">
            <mxPoint x="900" y="300" as="targetPoint" />
          </mxGeometry>
        </mxCell>
        <mxCell id="5y8bReTyfVtWufvomRR2-11" value="数据异构" style="ellipse;whiteSpace=wrap;html=1;" parent="1" vertex="1">
          <mxGeometry x="820" y="-80" width="120" height="80" as="geometry" />
        </mxCell>
        <mxCell id="5y8bReTyfVtWufvomRR2-14" style="edgeStyle=orthogonalEdgeStyle;rounded=0;orthogonalLoop=1;jettySize=auto;html=1;exitX=0.5;exitY=0;exitDx=0;exitDy=0;entryX=0;entryY=0.5;entryDx=0;entryDy=0;" parent="1" source="5y8bReTyfVtWufvomRR2-12" target="5y8bReTyfVtWufvomRR2-11" edge="1">
          <mxGeometry relative="1" as="geometry" />
        </mxCell>
        <mxCell id="5y8bReTyfVtWufvomRR2-12" value="Server" style="swimlane;whiteSpace=wrap;html=1;" parent="1" vertex="1">
          <mxGeometry x="50" y="170" width="280" height="480" as="geometry" />
        </mxCell>
        <mxCell id="5y8bReTyfVtWufvomRR2-3" value="高性能" style="rounded=1;whiteSpace=wrap;html=1;" parent="5y8bReTyfVtWufvomRR2-12" vertex="1">
          <mxGeometry x="80" y="345" width="120" height="60" as="geometry" />
        </mxCell>
        <mxCell id="5y8bReTyfVtWufvomRR2-2" value="可扩展性" style="rounded=1;whiteSpace=wrap;html=1;" parent="5y8bReTyfVtWufvomRR2-12" vertex="1">
          <mxGeometry x="80" y="215" width="120" height="60" as="geometry" />
        </mxCell>
        <mxCell id="5y8bReTyfVtWufvomRR2-1" value="高可用" style="rounded=1;whiteSpace=wrap;html=1;" parent="5y8bReTyfVtWufvomRR2-12" vertex="1">
          <mxGeometry x="80" y="75" width="120" height="60" as="geometry" />
        </mxCell>
      </root>
    </mxGraphModel>
  </diagram>
</mxfile>
